<svg width="293" height="52" viewBox="0 0 293 52" fill="none" xmlns="http://www.w3.org/2000/svg">
<path d="M78.9 15.9H75.9V9.9C75.9 6.1 72.8 3 69 3H9.9C6.1 3 3 6.1 3 9.9V15.9H0V9.9C0 4.4 4.4 0 9.9 0H69C74.5 0 78.9 4.4 78.9 9.9V15.9Z" fill="black"/>
<path d="M69 51.8H9.9C4.4 51.8 0 47.4 0 41.9V35.9H3V41.9C3 45.7 6.1 48.8 9.9 48.8H69C72.8 48.8 75.9 45.7 75.9 41.9V35.9H78.9V41.9C78.9 47.3 74.5 51.8 69 51.8Z" fill="black"/>
<path d="M21 11.9H15.1V39.9H21V11.9Z" fill="black"/>
<path d="M55.8 11.9H49.9V39.9H55.8V11.9Z" fill="black"/>
<path d="M45 11.9H42V39.9H45V11.9Z" fill="black"/>
<path d="M63.9 11.9H60.9V39.9H63.9V11.9Z" fill="black"/>
<path d="M29 11.9H26V39.9H29V11.9Z" fill="black"/>
<path d="M37 11.9H34V39.9H37V11.9Z" fill="black"/>
<path d="M118.728 1.11038C118.928 1.11038 119.128 1.11643 119.327 1.13156C119.527 1.14669 119.727 1.15274 119.926 1.15274V6.79842C119.696 6.77119 119.491 6.75001 119.306 6.73489C119.121 6.71976 118.928 6.71371 118.728 6.71371C117.019 6.71371 115.464 6.94062 114.069 7.39748C112.671 7.85434 111.482 8.49576 110.499 9.32173C109.515 10.1477 108.753 11.1401 108.211 12.2928C107.67 13.4486 107.397 14.7223 107.397 16.1202C107.397 17.7449 107.697 19.1911 108.296 20.4588C108.895 21.7265 109.715 22.7976 110.756 23.6659C111.797 24.5372 113.001 25.1998 114.368 25.6537C115.736 26.1105 117.191 26.3374 118.728 26.3374C118.928 26.3374 119.118 26.3314 119.306 26.3163C119.491 26.3011 119.696 26.28 119.926 26.2527V31.8954C119.727 31.8954 119.527 31.9014 119.327 31.9166C119.128 31.9317 118.928 31.9377 118.728 31.9377C116.447 31.9377 114.196 31.6443 111.972 31.0603C109.748 30.4764 107.745 29.5506 105.966 28.2799C104.184 27.0121 102.744 25.3783 101.649 23.3845C100.548 21.3937 100 18.9702 100 16.1202C100 13.4698 100.548 11.2036 101.646 9.32173C102.744 7.43984 104.181 5.88773 105.963 4.66238C107.745 3.43703 109.748 2.53844 111.969 1.96964C114.193 1.40084 116.444 1.11341 118.725 1.11341L118.728 1.11038Z" fill="black"/>
<path d="M133.95 7.78171C135.689 7.78171 137.32 8.09637 138.845 8.72265C140.37 9.34894 141.701 10.2052 142.842 11.2883C143.982 12.3715 144.878 13.6392 145.535 15.0945C146.191 16.5498 146.518 18.1019 146.518 19.7538C146.518 21.4058 146.191 22.9549 145.535 24.392C144.878 25.8322 143.979 27.0938 142.842 28.177C141.701 29.2601 140.37 30.1163 138.845 30.7426C137.32 31.3689 135.686 31.6836 133.95 31.6836C132.213 31.6836 130.579 31.3689 129.054 30.7426C127.53 30.1163 126.195 29.2601 125.058 28.177C123.917 27.0938 123.018 25.8322 122.365 24.392C121.708 22.9518 121.382 21.4058 121.382 19.7538C121.382 18.1019 121.708 16.5467 122.365 15.0945C123.021 13.6422 123.917 12.3715 125.058 11.2883C126.198 10.2052 127.53 9.34894 129.054 8.72265C130.579 8.09637 132.21 7.78171 133.95 7.78171ZM133.95 26.3798C135.06 26.3798 135.965 26.2073 136.664 25.8654C137.363 25.5236 137.91 25.0516 138.31 24.4555C138.709 23.8565 138.978 23.1515 139.123 22.3376C139.266 21.5238 139.338 20.6645 139.338 19.7508C139.338 18.8371 139.266 17.9778 139.123 17.1639C138.981 16.3501 138.709 15.6451 138.31 15.0461C137.91 14.447 137.363 13.969 136.664 13.615C135.965 13.258 135.06 13.0795 133.95 13.0795C132.839 13.0795 131.932 13.258 131.236 13.615C130.537 13.972 129.989 14.45 129.59 15.0461C129.191 15.6451 128.921 16.3501 128.776 17.1639C128.634 17.9778 128.561 18.8401 128.561 19.7508C128.561 20.6615 128.631 21.5238 128.776 22.3376C128.918 23.1515 129.188 23.8565 129.59 24.4555C129.989 25.0546 130.537 25.5236 131.236 25.8654C131.935 26.2073 132.839 26.3798 133.95 26.3798Z" fill="black"/>
<path d="M164.22 8.29607C165.788 8.29607 167.264 8.60165 168.647 9.21584C170.029 9.83002 171.24 10.6711 172.281 11.7391C173.321 12.8072 174.141 14.0567 174.74 15.4818C175.339 16.9068 175.639 18.4317 175.639 20.0564C175.639 21.6811 175.339 23.1999 174.74 24.6099C174.141 26.0198 173.321 27.2602 172.281 28.3283C171.24 29.3963 170.029 30.2374 168.647 30.8516C167.264 31.4627 165.788 31.7713 164.22 31.7713C163.022 31.7713 161.912 31.608 160.886 31.2812C159.861 30.9544 158.889 30.4915 157.979 29.8925V31.2177H150.539V0H157.979V10.2173C158.889 9.61823 159.861 9.14927 160.886 8.80739C161.912 8.4655 163.025 8.29304 164.22 8.29304V8.29607ZM163.237 26.5946C164.348 26.5946 165.246 26.4222 165.93 26.0803C166.614 25.7384 167.149 25.2664 167.533 24.6704C167.918 24.0713 168.181 23.3815 168.323 22.5979C168.465 21.8142 168.538 20.9671 168.538 20.0534C168.538 19.1397 168.465 18.2864 168.323 17.4877C168.181 16.689 167.918 15.9991 167.533 15.4152C167.149 14.8313 166.614 14.3684 165.93 14.0265C165.246 13.6846 164.348 13.5121 163.237 13.5121C162.127 13.5121 161.271 13.6846 160.587 14.0265C159.903 14.3684 159.367 14.8313 158.983 15.4152C158.599 15.9991 158.336 16.692 158.194 17.4877C158.051 18.2864 157.979 19.1397 157.979 20.0534C157.979 20.9671 158.048 21.8142 158.194 22.5979C158.336 23.3815 158.599 24.0743 158.983 24.6704C159.367 25.2664 159.903 25.7384 160.587 26.0803C161.271 26.4222 162.154 26.5946 163.237 26.5946Z" fill="black"/>
<path d="M193.378 12.8707C192.521 12.8707 191.726 12.9433 190.984 13.0855C190.243 13.2277 189.617 13.4123 189.103 13.6422C188.703 13.8147 188.34 14.0053 188.013 14.2201C187.687 14.4349 187.414 14.6982 187.199 15.0098C186.985 15.3244 186.821 15.7147 186.709 16.1867C186.594 16.6557 186.537 17.2487 186.537 17.9597V31.2146H179.055V17.5301C179.055 16.1353 179.339 14.8373 179.911 13.6392C180.48 12.4411 181.294 11.4094 182.346 10.538C183.399 9.66968 184.691 8.98591 186.216 8.48669C187.741 7.98748 189.472 7.73938 191.411 7.73938H191.968C192.14 7.73938 192.346 7.74543 192.588 7.76056C192.83 7.77569 193.093 7.79687 193.378 7.8241V12.8707Z" fill="black"/>
<path d="M206.805 7.95416C210.823 7.95416 213.761 8.83157 215.612 10.5834C217.464 12.3352 218.393 14.7677 218.393 17.8719V31.2539H211.253V28.7306C210.339 29.6444 209.25 30.3614 207.982 30.8909C206.714 31.4173 205.18 31.6805 203.386 31.6805C202.161 31.6805 201.014 31.5232 199.943 31.2116C198.875 30.9 197.934 30.4461 197.12 29.8471C196.306 29.251 195.668 28.5188 195.196 27.6505C194.727 26.7852 194.491 25.7807 194.491 24.6461V24.5614C194.491 23.3119 194.748 22.2227 195.26 21.2999C195.774 20.3771 196.491 19.6177 197.42 19.0186C198.346 18.4226 199.45 17.9748 200.733 17.6753C202.016 17.3788 203.426 17.2275 204.966 17.2275C206.276 17.2275 207.431 17.3122 208.43 17.4816C209.428 17.6511 210.381 17.875 211.295 18.1594V17.7721C211.295 14.9583 209.443 13.5514 205.737 13.5514C204.14 13.5514 202.757 13.6936 201.589 13.978V8.38077C202.358 8.23856 203.171 8.13267 204.025 8.06006C204.881 7.99047 205.807 7.95416 206.805 7.95416ZM211.422 21.9776C210.766 21.7204 210.045 21.5147 209.262 21.3574C208.478 21.2 207.631 21.1214 206.717 21.1214C205.093 21.1214 203.831 21.3937 202.932 21.9352C202.034 22.4768 201.586 23.2604 201.586 24.2861V24.3708C201.586 25.2543 201.964 25.9381 202.718 26.4221C203.474 26.9062 204.448 27.1483 205.646 27.1483C207.356 27.1483 208.747 26.7792 209.816 26.0379C210.884 25.2966 211.419 24.3285 211.419 23.1303V21.9746L211.422 21.9776Z" fill="black"/>
<path d="M246.824 31.2116H239.427V18.5133C239.427 17.9445 239.354 17.3576 239.212 16.7616C239.07 16.1625 238.827 15.6209 238.486 15.1368C238.144 14.6527 237.687 14.2534 237.118 13.9387C236.546 13.6241 235.835 13.4697 234.979 13.4697C234.123 13.4697 233.418 13.6271 232.861 13.9387C232.304 14.2534 231.857 14.6527 231.515 15.1368C231.173 15.6209 230.931 16.1625 230.789 16.7616C230.646 17.3606 230.574 17.9445 230.574 18.5133V31.2116H223.092V18.9823C223.092 17.4151 223.334 15.9537 223.818 14.6013C224.302 13.2489 225.037 12.0719 226.02 11.0735C227.004 10.0751 228.235 9.29146 229.718 8.72266C231.2 8.15385 232.952 7.86642 234.976 7.86642C237 7.86642 238.719 8.15083 240.213 8.72266C241.711 9.29449 242.942 10.0781 243.91 11.0735C244.879 12.0719 245.605 13.2489 246.092 14.6013C246.576 15.9568 246.818 17.4181 246.818 18.9823V31.2116H246.824Z" fill="black"/>
<path d="M266.405 12.8283C265.637 12.7134 264.687 12.7285 263.561 12.8707C262.436 13.0129 261.359 13.3487 260.333 13.8752C259.307 14.4016 258.424 15.1368 257.683 16.0778C256.941 17.0187 256.572 18.2168 256.572 19.6691C256.572 21.1214 256.941 22.3709 257.683 23.324C258.424 24.2801 259.307 25.0122 260.333 25.5266C261.359 26.0409 262.436 26.3616 263.561 26.4887C264.687 26.6158 265.634 26.5946 266.405 26.4252L266.448 31.3841C266.133 31.4415 265.8 31.5051 265.443 31.5777C265.086 31.6473 264.666 31.6836 264.182 31.6836L263.071 35.3596H256.146L258.627 30.9998C257.486 30.6851 256.367 30.2374 255.271 29.6534C254.173 29.0695 253.19 28.3222 252.321 27.4085C251.45 26.4978 250.754 25.3995 250.228 24.1167C249.701 22.8338 249.438 21.3513 249.438 19.6691C249.438 17.7872 249.759 16.1716 250.4 14.8161C251.042 13.4637 251.877 12.3291 252.902 11.4184C253.928 10.5077 255.075 9.78765 256.345 9.25818C257.613 8.73173 258.881 8.35354 260.152 8.1236C261.419 7.89668 262.611 7.78171 263.722 7.78171C264.832 7.78171 265.746 7.85432 266.457 7.99652L266.414 12.8283H266.405Z" fill="black"/>
<path d="M281.412 7.95416C285.43 7.95416 288.368 8.83157 290.219 10.5834C292.071 12.3352 293 14.7677 293 17.8719V31.2539H285.86V28.7306C284.946 29.6444 283.857 30.3614 282.589 30.8909C281.321 31.4173 279.787 31.6805 277.993 31.6805C276.768 31.6805 275.621 31.5232 274.55 31.2116C273.482 30.9 272.541 30.4461 271.727 29.8471C270.913 29.251 270.275 28.5188 269.803 27.6505C269.334 26.7852 269.098 25.7807 269.098 24.6461V24.5614C269.098 23.3119 269.355 22.2227 269.867 21.2999C270.381 20.3771 271.098 19.6177 272.027 19.0186C272.953 18.4226 274.057 17.9748 275.34 17.6753C276.623 17.3788 278.033 17.2275 279.573 17.2275C280.883 17.2275 282.038 17.3122 283.037 17.4816C284.035 17.6511 284.988 17.875 285.902 18.1594V17.7721C285.902 14.9583 284.05 13.5514 280.344 13.5514C278.747 13.5514 277.364 13.6936 276.196 13.978V8.38077C276.965 8.23856 277.778 8.13267 278.632 8.06006C279.488 7.99047 280.414 7.95416 281.412 7.95416ZM286.029 21.9776C285.373 21.7204 284.652 21.5147 283.869 21.3574C283.085 21.2 282.238 21.1214 281.324 21.1214C279.7 21.1214 278.438 21.3937 277.539 21.9352C276.641 22.4768 276.193 23.2604 276.193 24.2861V24.3708C276.193 25.2543 276.571 25.9381 277.325 26.4221C278.081 26.9062 279.055 27.1483 280.253 27.1483C281.963 27.1483 283.354 26.7792 284.422 26.0379C285.491 25.2966 286.026 24.3285 286.026 23.1303V21.9746L286.029 21.9776Z" fill="black"/>
<g clip-path="url(#clip0_1605_11896)">
<path d="M154.697 42.5321C155.252 42.5321 155.762 42.6276 156.226 42.8186C156.69 43.0095 157.086 43.2692 157.42 43.5939C157.751 43.9185 158.01 44.2966 158.193 44.732C158.375 45.1674 158.466 45.6257 158.466 46.1069C158.466 46.5882 158.375 47.0465 158.193 47.478C158.01 47.9058 157.755 48.2801 157.428 48.6009C157.101 48.9217 156.705 49.1738 156.249 49.3609C155.789 49.548 155.283 49.6435 154.728 49.6435C154.172 49.6435 153.689 49.5557 153.248 49.3762C152.807 49.1967 152.426 48.9484 152.111 48.6314V52H151V42.7116H152.103V43.548C152.423 43.2272 152.795 42.979 153.229 42.8033C153.663 42.6238 154.149 42.536 154.693 42.536L154.697 42.5321ZM154.697 48.7498C155.089 48.7498 155.446 48.6811 155.77 48.5436C156.093 48.4061 156.371 48.219 156.603 47.9745C156.835 47.7339 157.014 47.4513 157.143 47.1267C157.268 46.802 157.333 46.4545 157.333 46.0802C157.333 45.7059 157.272 45.3736 157.15 45.0528C157.029 44.732 156.854 44.4532 156.633 44.2164C156.413 43.9796 156.139 43.7925 155.815 43.655C155.492 43.5175 155.131 43.4487 154.731 43.4487C154.332 43.4487 153.986 43.5175 153.666 43.655C153.347 43.7925 153.073 43.9796 152.841 44.2241C152.609 44.4647 152.43 44.7511 152.301 45.0719C152.172 45.3966 152.111 45.7403 152.111 46.1069C152.111 46.4736 152.172 46.8135 152.289 47.1343C152.407 47.4551 152.582 47.7339 152.807 47.9783C153.035 48.219 153.305 48.4099 153.624 48.5474C153.944 48.6849 154.302 48.7537 154.701 48.7537L154.697 48.7498Z" fill="black"/>
<path d="M163.046 49.972C162.464 49.972 161.928 49.8727 161.437 49.6779C160.946 49.4831 160.524 49.2158 160.167 48.8835C159.813 48.5512 159.535 48.1617 159.334 47.711C159.132 47.2642 159.033 46.7829 159.033 46.2712C159.033 45.7594 159.132 45.2934 159.334 44.8389C159.535 44.3883 159.813 43.9911 160.174 43.655C160.532 43.3189 160.962 43.0515 161.456 42.8529C161.951 42.6582 162.491 42.5589 163.073 42.5589C163.655 42.5589 164.191 42.6582 164.682 42.8529C165.172 43.0477 165.598 43.3151 165.956 43.6473C166.313 43.9796 166.595 44.373 166.796 44.8198C166.998 45.2667 167.097 45.7441 167.097 46.2444C167.097 46.7447 166.994 47.2336 166.789 47.6843C166.583 48.1311 166.302 48.5283 165.944 48.8682C165.587 49.2081 165.157 49.4793 164.663 49.6779C164.168 49.8727 163.628 49.972 163.046 49.972ZM163.031 43.4793C162.612 43.4793 162.236 43.5519 161.897 43.6932C161.563 43.8345 161.277 44.0331 161.045 44.2852C160.813 44.5372 160.635 44.8313 160.513 45.1636C160.391 45.4959 160.33 45.8587 160.33 46.2406C160.33 46.6225 160.395 46.9853 160.528 47.3253C160.661 47.6652 160.848 47.9554 161.087 48.2037C161.327 48.4519 161.616 48.6467 161.947 48.7957C162.278 48.9408 162.65 49.0134 163.057 49.0134C163.464 49.0134 163.852 48.9408 164.191 48.7995C164.526 48.6582 164.811 48.4634 165.043 48.2151C165.275 47.9669 165.454 47.6766 165.583 47.3444C165.709 47.0083 165.773 46.6493 165.773 46.2673C165.773 45.8854 165.709 45.5226 165.575 45.1827C165.442 44.8428 165.256 44.5487 165.016 44.2966C164.777 44.0445 164.488 43.8459 164.149 43.7008C163.814 43.5557 163.442 43.4793 163.031 43.4793Z" fill="black"/>
<path d="M172.129 42.5742V43.6283H171.707C171.399 43.6283 171.11 43.6894 170.84 43.8116C170.57 43.9338 170.338 44.1018 170.136 44.3119C169.934 44.522 169.778 44.7626 169.657 45.0376C169.539 45.3125 169.478 45.599 169.478 45.9007V49.7925H168.333V45.9045C168.333 45.4462 168.42 45.0146 168.599 44.6098C168.778 44.205 169.018 43.8498 169.322 43.5481C169.626 43.2463 169.984 43.0095 170.391 42.8339C170.802 42.662 171.235 42.5742 171.699 42.5742H172.121H172.129Z" fill="black"/>
<path d="M181.147 44.2317C182.304 44.4685 183.156 44.797 183.703 45.2171C184.255 45.6372 184.529 46.2215 184.529 46.9701C184.529 47.3902 184.441 47.7836 184.263 48.1464C184.084 48.5131 183.84 48.8301 183.525 49.0974C183.213 49.3686 182.836 49.5786 182.406 49.7352C181.973 49.8918 181.501 49.9682 180.98 49.9682C179.679 49.9682 178.515 49.6359 177.488 48.9675L178.321 48.2419C178.732 48.4901 179.15 48.6735 179.584 48.7957C180.018 48.9179 180.497 48.979 181.022 48.979C181.368 48.979 181.684 48.9255 181.969 48.8224C182.254 48.7193 182.501 48.5742 182.707 48.3985C182.912 48.2228 183.068 48.0166 183.178 47.7874C183.289 47.5583 183.342 47.3215 183.342 47.0732C183.342 46.8441 183.304 46.6416 183.228 46.4621C183.152 46.2826 183.011 46.1222 182.813 45.9771C182.612 45.832 182.338 45.6983 181.988 45.5723C181.638 45.4462 181.189 45.3316 180.645 45.2247C180.044 45.1063 179.527 44.9803 179.09 44.8466C178.652 44.7129 178.291 44.5525 178.006 44.3654C177.72 44.1782 177.507 43.9491 177.37 43.6817C177.233 43.4106 177.165 43.0783 177.165 42.6735C177.165 42.2686 177.249 41.9325 177.416 41.6041C177.583 41.2756 177.819 40.993 178.123 40.76C178.428 40.5271 178.789 40.3437 179.2 40.2139C179.614 40.0802 180.067 40.0153 180.558 40.0153C181.113 40.0153 181.611 40.0688 182.056 40.1719C182.501 40.2788 182.924 40.4354 183.327 40.6455V41.9058C182.87 41.585 182.418 41.3558 181.961 41.2145C181.505 41.0732 181.029 41.0006 180.527 41.0006C179.847 41.0006 179.306 41.1496 178.911 41.4513C178.515 41.753 178.317 42.1273 178.317 42.5742C178.317 42.8033 178.359 42.9943 178.439 43.1509C178.519 43.3075 178.667 43.445 178.877 43.5633C179.086 43.6817 179.371 43.7925 179.736 43.8918C180.101 43.9911 180.569 44.1019 181.14 44.2203L181.147 44.2317Z" fill="black"/>
<path d="M187.218 40.042V40.9586H186.005V40.042H187.218ZM186.005 42.6849H187.218V49.7925H186.005V42.6849Z" fill="black"/>
<path d="M191.676 45.7479C191.976 45.8281 192.273 45.9236 192.57 46.0267C192.866 46.1298 193.133 46.2597 193.368 46.4163C193.604 46.5729 193.794 46.76 193.943 46.9777C194.091 47.1954 194.16 47.4666 194.16 47.7836V47.8103C194.16 48.1464 194.087 48.4481 193.947 48.7116C193.806 48.9752 193.612 49.2005 193.361 49.38C193.11 49.5633 192.821 49.7008 192.486 49.7963C192.155 49.8918 191.797 49.9414 191.417 49.9414C190.972 49.9414 190.523 49.8803 190.074 49.7581C189.626 49.6359 189.2 49.4678 188.8 49.2578V48.1349C189.219 48.4214 189.652 48.6429 190.105 48.7957C190.554 48.9484 191.01 49.0248 191.474 49.0248C191.938 49.0248 192.319 48.9255 192.619 48.7231C192.92 48.5245 193.068 48.2495 193.068 47.902V47.8752C193.068 47.7034 193.015 47.5506 192.912 47.4246C192.809 47.2985 192.665 47.184 192.49 47.0885C192.315 46.993 192.109 46.909 191.877 46.8364C191.645 46.7638 191.402 46.6951 191.147 46.6302C190.847 46.55 190.546 46.4583 190.238 46.3628C189.934 46.2673 189.66 46.1451 189.413 45.9924C189.165 45.8396 188.968 45.6563 188.819 45.4386C188.671 45.2209 188.595 44.9459 188.595 44.6174V44.5907C188.595 44.289 188.66 44.014 188.793 43.7619C188.926 43.5099 189.105 43.296 189.337 43.1203C189.569 42.9408 189.842 42.8033 190.162 42.704C190.481 42.6047 190.831 42.5551 191.212 42.5551C191.52 42.5551 191.832 42.5856 192.147 42.6505C192.459 42.7155 192.767 42.7957 193.068 42.8988V43.9262C192.433 43.6244 191.805 43.4755 191.185 43.4755C190.721 43.4755 190.356 43.5748 190.093 43.7696C189.831 43.9643 189.698 44.2088 189.698 44.499V44.5258C189.698 44.69 189.751 44.8351 189.861 44.9573C189.972 45.0796 190.12 45.1865 190.306 45.2782C190.493 45.3698 190.706 45.45 190.942 45.5226C191.177 45.5952 191.425 45.6677 191.68 45.7403L191.676 45.7479Z" fill="black"/>
<path d="M199.055 49.7925H198.454C197.682 49.7925 197.085 49.5862 196.666 49.1776C196.248 48.7651 196.039 48.1655 196.039 47.3711V41.4246H197.225V42.7116H199.055V43.6283H197.225V47.3138C197.225 48.3374 197.685 48.8491 198.602 48.8491H199.051V49.7925H199.055Z" fill="black"/>
<path d="M206.259 49.3571C205.958 49.5404 205.624 49.6817 205.255 49.7887C204.886 49.8918 204.46 49.9453 203.98 49.9453C203.452 49.9453 202.953 49.8574 202.486 49.6779C202.018 49.4984 201.611 49.2502 201.265 48.9332C200.919 48.6123 200.645 48.2266 200.439 47.7683C200.234 47.31 200.131 46.8097 200.131 46.2597C200.131 45.7479 200.222 45.2705 200.409 44.8199C200.595 44.373 200.854 43.9835 201.181 43.6474C201.508 43.3151 201.896 43.0516 202.349 42.8606C202.801 42.6696 203.292 42.5742 203.828 42.5742C204.403 42.5742 204.912 42.6735 205.357 42.8682C205.802 43.063 206.179 43.3304 206.483 43.6626C206.787 43.9949 207.023 44.3921 207.187 44.8466C207.35 45.3049 207.434 45.7899 207.434 46.3132V46.4621C207.434 46.5156 207.43 46.5767 207.419 46.6416H201.295C201.333 47.0236 201.432 47.3596 201.596 47.6575C201.759 47.9516 201.965 48.2037 202.208 48.4061C202.455 48.6085 202.729 48.7651 203.041 48.8682C203.349 48.9714 203.672 49.0248 204.011 49.0248C204.502 49.0248 204.928 48.9523 205.285 48.8033C205.643 48.6544 205.97 48.4558 206.259 48.2037V49.3533V49.3571ZM203.802 43.4526C203.467 43.4526 203.151 43.5137 202.862 43.6359C202.573 43.7581 202.318 43.93 202.098 44.1439C201.881 44.3577 201.698 44.6136 201.558 44.9039C201.417 45.198 201.329 45.515 201.291 45.8625H206.255C206.228 45.5417 206.156 45.2362 206.042 44.9459C205.928 44.6556 205.768 44.3997 205.563 44.1782C205.357 43.9567 205.106 43.7849 204.813 43.6512C204.517 43.5175 204.178 43.4526 203.798 43.4526H203.802Z" fill="black"/>
<path d="M217.567 42.5321C218.031 42.5321 218.468 42.62 218.883 42.7995C219.298 42.979 219.655 43.2158 219.959 43.5175C220.264 43.8192 220.503 44.1744 220.682 44.5792C220.861 44.9841 220.948 45.4233 220.948 45.8854V49.7887H219.803V48.3946H219.788V45.8931C219.788 45.5913 219.739 45.2934 219.644 44.9994C219.549 44.7015 219.408 44.4417 219.221 44.2126C219.035 43.9834 218.803 43.8001 218.525 43.6588C218.248 43.5175 217.928 43.4449 217.563 43.4449C217.198 43.4449 216.878 43.5175 216.601 43.6588C216.323 43.8001 216.091 43.9834 215.897 44.2126C215.707 44.4417 215.562 44.7015 215.467 44.9917C215.372 45.282 215.323 45.5799 215.323 45.8816V49.7887H214.178V45.8854C214.178 45.5837 214.128 45.2896 214.033 44.9955C213.938 44.7015 213.794 44.4456 213.604 44.2164C213.413 43.9873 213.178 43.8039 212.9 43.6626C212.622 43.5213 212.303 43.4487 211.938 43.4487C211.572 43.4487 211.253 43.5213 210.975 43.6626C210.698 43.8039 210.466 43.9873 210.279 44.2164C210.093 44.4456 209.952 44.7053 209.857 45.0032C209.762 45.3011 209.712 45.599 209.712 45.8969V49.7925H208.552V45.8892C208.552 45.4233 208.64 44.9879 208.819 44.5831C208.997 44.1782 209.237 43.823 209.541 43.5213C209.846 43.2196 210.203 42.979 210.618 42.8033C211.032 42.6238 211.47 42.536 211.934 42.536C212.523 42.536 213.067 42.6696 213.558 42.9408C214.049 43.212 214.444 43.5671 214.745 44.0178C215.053 43.571 215.452 43.212 215.939 42.9408C216.426 42.6696 216.966 42.536 217.556 42.536L217.567 42.5321Z" fill="black"/>
<path d="M226.155 42.5321C227.217 42.5321 228.031 42.7766 228.597 43.2654C229.164 43.7543 229.449 44.4761 229.449 45.4347V49.7887H228.346V48.7078C228.209 48.872 228.038 49.0286 227.829 49.1738C227.62 49.3189 227.384 49.4487 227.125 49.5633C226.867 49.6779 226.581 49.7696 226.266 49.8383C225.95 49.9071 225.627 49.9414 225.292 49.9414C224.938 49.9414 224.592 49.8918 224.254 49.7963C223.919 49.7008 223.622 49.5595 223.367 49.3724C223.113 49.1852 222.907 48.9484 222.755 48.6658C222.599 48.3832 222.523 48.0547 222.523 47.6804C222.523 46.9128 222.808 46.3323 223.383 45.9351C223.957 45.5379 224.733 45.3393 225.714 45.3393C226.205 45.3393 226.68 45.366 227.141 45.4233C227.601 45.4768 228 45.5493 228.346 45.641V45.45C228.346 44.7931 228.145 44.3004 227.742 43.972C227.338 43.6435 226.775 43.4793 226.049 43.4793C225.585 43.4793 225.17 43.529 224.798 43.6283C224.425 43.7276 224.063 43.8574 223.71 44.0102V42.9981C224.082 42.8529 224.459 42.7384 224.847 42.6544C225.231 42.5741 225.672 42.5321 226.159 42.5321H226.155ZM228.358 46.4354C228.069 46.3628 227.692 46.2941 227.236 46.2291C226.779 46.1642 226.311 46.1337 225.844 46.1337C225.109 46.1337 224.569 46.2673 224.223 46.5385C223.877 46.8097 223.706 47.1763 223.706 47.6423C223.706 48.1082 223.877 48.4672 224.223 48.7155C224.569 48.9675 224.999 49.0936 225.516 49.0936C225.87 49.0936 226.22 49.0439 226.562 48.9484C226.909 48.8529 227.209 48.7193 227.475 48.5436C227.738 48.3717 227.951 48.1655 228.114 47.9287C228.278 47.6919 228.358 47.4284 228.358 47.1343V46.4354Z" fill="black"/>
<path d="M240.7 49.9185C240.438 49.9452 240.168 49.9605 239.894 49.9605C239.141 49.9605 238.441 49.8345 237.798 49.5786C237.155 49.3227 236.604 48.9752 236.132 48.5321C235.664 48.0891 235.299 47.5697 235.033 46.9701C234.771 46.3705 234.637 45.725 234.637 45.0337C234.637 44.3424 234.771 43.7046 235.033 43.1012C235.295 42.4978 235.664 41.9707 236.132 41.52C236.6 41.0694 237.159 40.7104 237.802 40.4507C238.449 40.1909 239.156 40.0611 239.928 40.0611C240.191 40.0611 240.446 40.0764 240.693 40.1031V41.0961C240.567 41.077 240.438 41.0656 240.312 41.0541C240.187 41.0465 240.054 41.0388 239.917 41.0388C239.335 41.0388 238.795 41.1381 238.3 41.3405C237.806 41.543 237.376 41.8218 237.019 42.1808C236.661 42.5398 236.376 42.9561 236.174 43.4373C235.973 43.9185 235.866 44.4379 235.866 44.9955C235.866 45.5531 235.969 46.0764 236.174 46.5614C236.38 47.0465 236.661 47.4704 237.026 47.8256C237.391 48.1846 237.821 48.4634 238.316 48.6658C238.81 48.8682 239.346 48.9675 239.917 48.9675C240.054 48.9675 240.187 48.9637 240.312 48.9522C240.438 48.9408 240.567 48.9293 240.693 48.9102V49.9109L240.7 49.9185Z" fill="black"/>
<path d="M245.014 49.972C244.432 49.972 243.895 49.8727 243.405 49.6779C242.914 49.4831 242.492 49.2158 242.134 48.8835C241.781 48.5512 241.503 48.1617 241.301 47.711C241.1 47.2642 241.001 46.7829 241.001 46.2712C241.001 45.7594 241.1 45.2934 241.301 44.8389C241.503 44.3883 241.781 43.9911 242.142 43.655C242.5 43.3189 242.929 43.0515 243.424 42.8529C243.918 42.6582 244.458 42.5589 245.04 42.5589C245.622 42.5589 246.159 42.6582 246.649 42.8529C247.14 43.0477 247.566 43.3151 247.923 43.6473C248.281 43.9796 248.562 44.373 248.764 44.8198C248.966 45.2667 249.065 45.7441 249.065 46.2444C249.065 46.7447 248.962 47.2336 248.756 47.6843C248.551 48.1311 248.27 48.5283 247.912 48.8682C247.555 49.2081 247.125 49.4793 246.63 49.6779C246.136 49.8727 245.596 49.972 245.014 49.972ZM244.999 43.4793C244.58 43.4793 244.204 43.5519 243.865 43.6932C243.53 43.8345 243.245 44.0331 243.013 44.2852C242.781 44.5372 242.602 44.8313 242.481 45.1636C242.359 45.4959 242.298 45.8587 242.298 46.2406C242.298 46.6225 242.363 46.9853 242.496 47.3253C242.629 47.6652 242.815 47.9554 243.055 48.2037C243.294 48.4519 243.584 48.6467 243.914 48.7957C244.245 48.9408 244.618 49.0134 245.025 49.0134C245.432 49.0134 245.82 48.9408 246.159 48.7995C246.493 48.6582 246.779 48.4634 247.011 48.2151C247.243 47.9669 247.421 47.6766 247.551 47.3444C247.676 47.0083 247.741 46.6493 247.741 46.2673C247.741 45.8854 247.676 45.5226 247.543 45.1827C247.41 44.8428 247.224 44.5487 246.984 44.2966C246.744 44.0445 246.455 43.8459 246.117 43.7008C245.782 43.5557 245.409 43.4793 244.999 43.4793Z" fill="black"/>
<path d="M259.034 42.5321C259.498 42.5321 259.935 42.62 260.35 42.7995C260.764 42.979 261.122 43.2158 261.426 43.5175C261.731 43.8192 261.97 44.1744 262.149 44.5792C262.328 44.9841 262.415 45.4233 262.415 45.8854V49.7887H261.27V48.3946H261.255V45.8931C261.255 45.5913 261.206 45.2934 261.111 44.9994C261.016 44.7015 260.875 44.4417 260.688 44.2126C260.502 43.9834 260.27 43.8001 259.992 43.6588C259.715 43.5175 259.395 43.4449 259.03 43.4449C258.665 43.4449 258.345 43.5175 258.068 43.6588C257.79 43.8001 257.558 43.9834 257.364 44.2126C257.174 44.4417 257.029 44.7015 256.934 44.9917C256.839 45.282 256.79 45.5799 256.79 45.8816V49.7887H255.645V45.8854C255.645 45.5837 255.595 45.2896 255.5 44.9955C255.405 44.7015 255.261 44.4456 255.07 44.2164C254.88 43.9873 254.644 43.8039 254.367 43.6626C254.089 43.5213 253.77 43.4487 253.405 43.4487C253.039 43.4487 252.72 43.5213 252.442 43.6626C252.165 43.8039 251.933 43.9873 251.746 44.2164C251.56 44.4456 251.419 44.7053 251.324 45.0032C251.229 45.3011 251.179 45.599 251.179 45.8969V49.7925H250.019V45.8892C250.019 45.4233 250.107 44.9879 250.286 44.5831C250.464 44.1782 250.704 43.823 251.008 43.5213C251.313 43.2196 251.67 42.979 252.085 42.8033C252.499 42.6238 252.937 42.536 253.401 42.536C253.99 42.536 254.534 42.6696 255.025 42.9408C255.515 43.212 255.911 43.5671 256.212 44.0178C256.52 43.571 256.919 43.212 257.406 42.9408C257.893 42.6696 258.433 42.536 259.022 42.536L259.034 42.5321Z" fill="black"/>
<path d="M270.152 49.3571C269.851 49.5404 269.517 49.6817 269.148 49.7887C268.779 49.8918 268.353 49.9453 267.873 49.9453C267.345 49.9453 266.846 49.8574 266.379 49.6779C265.911 49.4984 265.504 49.2502 265.158 48.9332C264.811 48.6123 264.538 48.2266 264.332 47.7683C264.127 47.31 264.024 46.8097 264.024 46.2597C264.024 45.7479 264.115 45.2705 264.302 44.8199C264.488 44.373 264.747 43.9834 265.074 43.6474C265.401 43.3151 265.789 43.0516 266.242 42.8606C266.694 42.6696 267.185 42.5742 267.721 42.5742C268.296 42.5742 268.805 42.6735 269.25 42.8682C269.695 43.063 270.072 43.3304 270.376 43.6626C270.68 43.9949 270.916 44.3921 271.08 44.8466C271.243 45.3049 271.327 45.7899 271.327 46.3132V46.4621C271.327 46.5156 271.323 46.5767 271.312 46.6416H265.188C265.226 47.0235 265.325 47.3596 265.488 47.6575C265.652 47.9516 265.857 48.2037 266.101 48.4061C266.348 48.6085 266.622 48.7651 266.934 48.8682C267.242 48.9714 267.565 49.0248 267.904 49.0248C268.394 49.0248 268.82 48.9523 269.178 48.8033C269.536 48.6544 269.863 48.4558 270.152 48.2037V49.3533V49.3571ZM267.695 43.4526C267.36 43.4526 267.044 43.5137 266.755 43.6359C266.466 43.7581 266.211 43.93 265.991 44.1439C265.774 44.3577 265.591 44.6136 265.45 44.9039C265.31 45.198 265.222 45.515 265.184 45.8625H270.148C270.121 45.5417 270.049 45.2362 269.935 44.9459C269.821 44.6556 269.661 44.3997 269.456 44.1782C269.25 43.9567 268.999 43.7848 268.706 43.6512C268.41 43.5175 268.071 43.4526 267.691 43.4526H267.695ZM267.052 41.6461L268.334 40.0038H269.768L267.927 41.6461H267.052Z" fill="black"/>
<path d="M276.085 42.5742V43.6283H275.663C275.355 43.6283 275.066 43.6894 274.796 43.8116C274.526 43.9338 274.294 44.1018 274.092 44.3119C273.891 44.522 273.735 44.7626 273.613 45.0376C273.495 45.3125 273.434 45.599 273.434 45.9007V49.7925H272.289V45.9045C272.289 45.4462 272.377 45.0146 272.556 44.6098C272.734 44.205 272.974 43.8498 273.278 43.5481C273.583 43.2463 273.94 43.0095 274.347 42.8339C274.758 42.662 275.192 42.5742 275.656 42.5742H276.078H276.085Z" fill="black"/>
<path d="M281.133 49.93C280.924 49.9567 280.707 49.972 280.479 49.972C279.878 49.972 279.318 49.8727 278.801 49.6779C278.284 49.4831 277.835 49.2158 277.458 48.8835C277.082 48.5512 276.785 48.1617 276.572 47.711C276.359 47.2642 276.253 46.7906 276.253 46.2864C276.253 45.7823 276.359 45.3087 276.572 44.8542C276.785 44.4036 277.082 44.0064 277.458 43.6626C277.835 43.3189 278.284 43.0515 278.801 42.8529C279.318 42.6582 279.878 42.5589 280.479 42.5589C280.707 42.5589 280.924 42.5741 281.133 42.6009V43.5442C280.905 43.4984 280.684 43.4755 280.463 43.4755C280.045 43.4755 279.657 43.548 279.296 43.6894C278.938 43.8307 278.626 44.0293 278.36 44.2813C278.097 44.5334 277.888 44.8275 277.74 45.1674C277.592 45.5073 277.516 45.8663 277.516 46.2521C277.516 46.6378 277.592 46.9968 277.748 47.3367C277.904 47.6766 278.113 47.9707 278.383 48.2228C278.653 48.4748 278.969 48.6696 279.337 48.8148C279.706 48.9599 280.11 49.0286 280.543 49.0286C280.76 49.0286 280.958 49.0095 281.129 48.9752V49.9338L281.133 49.93Z" fill="black"/>
<path d="M283.86 40.042V40.9586H282.647V40.042H283.86ZM282.647 42.6849H283.86V49.7925H282.647V42.6849Z" fill="black"/>
<path d="M288.949 49.972C288.367 49.972 287.831 49.8727 287.34 49.6779C286.85 49.4831 286.427 49.2158 286.07 48.8835C285.716 48.5512 285.438 48.1617 285.237 47.711C285.035 47.2642 284.936 46.7829 284.936 46.2712C284.936 45.7594 285.035 45.2934 285.237 44.8389C285.438 44.3883 285.716 43.9911 286.077 43.655C286.435 43.3189 286.865 43.0515 287.359 42.8529C287.854 42.6582 288.394 42.5589 288.976 42.5589C289.558 42.5589 290.094 42.6582 290.585 42.8529C291.075 43.0477 291.501 43.3151 291.859 43.6473C292.216 43.9796 292.498 44.373 292.7 44.8198C292.901 45.2667 293 45.7441 293 46.2444C293 46.7447 292.897 47.2336 292.692 47.6843C292.486 48.1311 292.205 48.5283 291.847 48.8682C291.49 49.2081 291.06 49.4793 290.566 49.6779C290.071 49.8727 289.531 49.972 288.949 49.972ZM288.934 43.4793C288.516 43.4793 288.139 43.5519 287.8 43.6932C287.466 43.8345 287.18 44.0331 286.948 44.2852C286.716 44.5372 286.538 44.8313 286.416 45.1636C286.294 45.4959 286.233 45.8587 286.233 46.2406C286.233 46.6225 286.298 46.9853 286.431 47.3253C286.564 47.6652 286.751 47.9554 286.99 48.2037C287.23 48.4519 287.519 48.6467 287.85 48.7957C288.181 48.9408 288.554 49.0134 288.961 49.0134C289.368 49.0134 289.756 48.9408 290.094 48.7995C290.429 48.6582 290.714 48.4634 290.946 48.2151C291.178 47.9669 291.357 47.6766 291.486 47.3444C291.612 47.0083 291.676 46.6493 291.676 46.2673C291.676 45.8854 291.612 45.5226 291.479 45.1827C291.345 44.8428 291.159 44.5487 290.919 44.2966C290.68 44.0445 290.391 43.8459 290.052 43.7008C289.717 43.5557 289.345 43.4793 288.934 43.4793Z" fill="black"/>
</g>
<defs>
<clipPath id="clip0_1605_11896">
<rect width="142" height="12" fill="white" transform="translate(151 40)"/>
</clipPath>
</defs>
</svg>
